# xmcd
#
# Track frame offsets: 
#        150
#        18797
#        33801
#        46107
#        60121
#        78821
#        99105
#        118593
#        136485
#        158947
#        171191
#        185906
#        198451
#        214163
#        239673
#
# Disc length: 3378 seconds
#
# Revision: 1
# Processed by: cddbd v1.5.2PL0 Copyright (c) Steve Scherf et al.
# Submitted via: ExactAudioCopy v0.99pb4
#
DISCID=bd0d300f
DTITLE=Various Artist - Country Heat Christmas 2
DYEAR=2003
DGENRE=Christmas
TTITLE0=Alan Jackson with The Chipmunks - Santa's Gonna Come in a Pick
TTITLE0=up Truck
TTITLE1=Lonestar - Winter Wonderland
TTITLE2=Martina McBride - Silver Bells
TTITLE3=Brooks and Dunn - Rockin' Little Christmas
TTITLE4=Alabama - Angels Among Us
TTITLE5=Sara Evans - Go Tell It On The Mountain
TTITLE6=Kenny Chesney - Santa Claus is Back in Town
TTITLE7=Diamond Rio - Christmas Spirit
TTITLE8=Brad Paisley - 364 Days to Go
TTITLE9=Tractors - Jingle My Bells
TTITLE10=Lorrie Morgan - O Holy Night
TTITLE11=Vince Gill - It's the Most Wonderful Time of the Year
TTITLE12=John Anderson - The Night Before Christmas
TTITLE13=Bob Carlisle - Butterfly Kisses
TTITLE14=Blackhawk - We Three Kings (Star of Wonder)
EXTD=YEAR: 2003 ID3G: 2
EXTT0=
EXTT1=
EXTT2=
EXTT3=
EXTT4=
EXTT5=
EXTT6=
EXTT7=
EXTT8=
EXTT9=
EXTT10=
EXTT11=
EXTT12=
EXTT13=
EXTT14=
PLAYORDER=
